<?xml version="1.0" encoding="UTF-8" standalone="no"?>
<!-- Created with Inkscape (http://www.inkscape.org/) -->

<svg
   width="650mm"
   height="297mm"
   viewBox="0 0 650 297"
   version="1.1"
   id="svg5"
   inkscape:version="1.1.1 (3bf5ae0d25, 2021-09-20)"
   sodipodi:docname="рисунок.svg"
   xmlns:inkscape="http://www.inkscape.org/namespaces/inkscape"
   xmlns:sodipodi="http://sodipodi.sourceforge.net/DTD/sodipodi-0.dtd"
   xmlns="http://www.w3.org/2000/svg"
   xmlns:svg="http://www.w3.org/2000/svg">
  <sodipodi:namedview
     id="namedview7"
     pagecolor="#ffffff"
     bordercolor="#666666"
     borderopacity="1.0"
     inkscape:pageshadow="2"
     inkscape:pageopacity="0.0"
     inkscape:pagecheckerboard="0"
     inkscape:document-units="mm"
     showgrid="false"
     inkscape:zoom="0.37059484"
     inkscape:cx="728.55845"
     inkscape:cy="141.66414"
     inkscape:window-width="1920"
     inkscape:window-height="1017"
     inkscape:window-x="-8"
     inkscape:window-y="-8"
     inkscape:window-maximized="1"
     inkscape:current-layer="layer1"
     width="450mm" />
  <defs
     id="defs2">
    <rect
       x="955.22107"
       y="588.24347"
       width="682.68628"
       height="91.7444"
       id="rect7518" />
    <rect
       x="-18.973719"
       y="-614.05847"
       width="1566.1941"
       height="319.10342"
       id="rect854" />
  </defs>
  <g
     inkscape:label="Слой 1"
     inkscape:groupmode="layer"
     id="layer1">
    <path
       style="fill:#000000;stroke-width:0.101982"
       d="m 101.40347,217.44498 c -0.0563,-0.0912 -0.008,-0.47731 0.22299,-1.77372 0.0299,-0.16827 0.1005,-0.60423 0.15672,-0.96883 0.0562,-0.36458 0.14235,-0.89233 0.19138,-1.17278 0.049,-0.28045 0.13249,-0.76232 0.18546,-1.07081 0.18922,-1.10183 1.57349,-6.97835 1.86177,-7.9036 0.0993,-0.3187 0.80726,-2.85003 1.06959,-3.82431 0.0831,-0.30849 0.2349,-0.81331 0.33741,-1.1218 0.10247,-0.30849 0.24526,-0.76741 0.31722,-1.01982 0.33814,-1.18608 2.03289,-6.43367 2.1486,-6.65292 0.0513,-0.0974 0.0934,-0.24717 0.0934,-0.33283 0,-0.0857 0.045,-0.23542 0.0999,-0.33283 0.0549,-0.0974 0.21112,-0.52127 0.34704,-0.94194 0.13592,-0.42068 0.55378,-1.63681 0.92855,-2.70252 0.37478,-1.06571 0.71932,-2.05239 0.76565,-2.19261 0.0464,-0.14023 0.23011,-0.64503 0.4084,-1.12181 0.17828,-0.47676 0.36018,-0.98157 0.40421,-1.12179 0.0854,-0.27216 0.67516,-1.85247 0.81818,-2.19261 0.0472,-0.1122 0.62419,-1.58072 1.28229,-3.26342 1.00494,-2.56958 2.70602,-6.68777 3.41213,-8.26052 0.10072,-0.22436 0.4644,-1.05041 0.80817,-1.83568 0.34377,-0.78526 0.71271,-1.61131 0.81986,-1.83566 0.38145,-0.79864 1.29618,-2.7656 1.63622,-3.51838 0.38715,-0.85707 4.24263,-8.54786 4.95909,-9.89224 0.25407,-0.47676 0.65704,-1.23397 0.89547,-1.6827 0.51381,-0.96695 0.93005,-1.72861 1.58834,-2.90648 0.26646,-0.47676 0.61237,-1.0963 0.76869,-1.37676 1.10482,-1.9821 2.15296,-3.77901 2.50917,-4.3016 0.15981,-0.23447 0.29058,-0.44877 0.29058,-0.47622 0,-0.0744 1.41997,-2.37719 3.50837,-5.6895 0.61779,-0.97985 2.21973,-3.39597 3.03332,-4.57499 0.25159,-0.36458 0.96558,-1.40229 1.58666,-2.306 1.01797,-1.48124 2.08093,-2.98224 2.30297,-3.25201 0.0883,-0.10733 1.17583,-1.61342 1.73347,-2.4007 0.18038,-0.25469 1.06224,-1.41843 1.95969,-2.58613 0.89743,-1.16769 1.72349,-2.24782 1.83567,-2.40027 0.33349,-0.45322 2.5294,-3.19799 2.77844,-3.47292 0.12652,-0.13965 0.23002,-0.31166 0.23002,-0.38223 0,-0.10269 -5.18636,-0.13345 -25.97986,-0.15402 l -25.97987,-0.0257 0.0093,-0.30595 c 0.0046,-0.16827 0.06642,-0.60424 0.136337,-0.96882 0.0699,-0.3646 0.16673,-0.8694 0.215135,-1.12181 0.04845,-0.2524 0.298187,-1.46853 0.555098,-2.70251 0.256898,-1.23399 0.51586,-2.49601 0.575463,-2.80451 0.05958,-0.30849 0.145761,-0.74446 0.191465,-0.96883 0.07859,-0.38571 0.225533,-1.12593 0.404909,-2.03963 0.04405,-0.22435 0.360243,-1.80763 0.702633,-3.518372 0.34241,-1.71074 0.67268,-3.362845 0.73394,-3.671341 0.0612,-0.308495 0.15053,-0.721523 0.19834,-0.917838 0.0478,-0.196314 0.13849,-0.632285 0.20148,-0.968826 0.0629,-0.33654 0.15899,-0.818408 0.21332,-1.070813 0.14316,-0.665062 0.87665,-4.305248 1.19698,-5.940405 l 0.2747,-1.402221 44.99947,-3e-5 44.99947,-3.1e-5 v 0.254956 c 0,0.140226 -0.0459,0.25495 -0.102,0.25495 -0.0561,0 -0.10201,0.103279 -0.10201,0.2295 0,0.126225 -0.0688,0.550721 -0.15313,0.943333 -0.15922,0.742174 -0.60153,2.8234 -0.76942,3.620316 -0.0532,0.252404 -0.19172,0.894889 -0.30788,1.427745 -0.11617,0.532854 -0.25322,1.198287 -0.30455,1.478738 -0.0514,0.28045 -0.14012,0.716421 -0.19728,0.968826 -0.0572,0.252404 -0.1491,0.688375 -0.20431,0.968825 -0.0552,0.28045 -0.19342,0.945884 -0.30714,1.478739 -0.11371,0.532855 -0.27302,1.290065 -0.35401,1.682695 -0.13835,0.670783 -0.31298,1.485784 -0.78663,3.671344 -0.10943,0.50481 -0.24167,1.14729 -0.29394,1.42775 -0.0523,0.28045 -0.13892,0.71642 -0.19257,0.96882 -0.0537,0.2524 -0.14163,0.68839 -0.1955,0.96883 -0.0539,0.28045 -0.13357,0.60169 -0.17714,0.71388 -0.16152,0.41592 -1.0081,1.63627 -1.30746,1.88473 -5.05104,4.19208 -10.75167,10.44688 -16.31383,17.89974 -0.20931,0.28046 -0.43507,0.57875 -0.5017,0.66288 -1.45483,1.83697 -6.36809,8.9696 -8.33003,12.09278 -1.39505,2.22074 -4.14964,6.81838 -4.27229,7.1308 -0.022,0.0561 -0.11845,0.2167 -0.2143,0.35692 -0.23729,0.34721 -2.02132,3.56199 -3.08437,5.55802 -0.47796,0.89744 -1.06486,1.99885 -1.30422,2.44756 -0.93971,1.76162 -3.8739,7.69342 -5.2716,10.6571 -0.89683,1.90169 -1.03935,2.21087 -1.69219,3.67135 -0.36355,0.8133 -0.77614,1.73114 -0.91684,2.03963 -0.50352,1.10389 -2.69822,6.27981 -2.83239,6.67981 -0.0752,0.22436 -0.16889,0.45382 -0.20805,0.50991 -0.11646,0.16673 -1.87113,4.66484 -2.58584,6.62882 -0.20412,0.56089 -0.41122,1.11159 -0.46022,1.22377 -0.0908,0.20776 -0.36431,0.96925 -0.9709,2.70252 -2.08894,5.96906 -3.08356,8.86203 -3.20815,9.33134 -0.0446,0.16827 -0.19666,0.65013 -0.33774,1.07082 -0.30895,0.92119 -0.7669,2.37237 -1.14251,3.62034 -0.15193,0.50481 -0.31582,1.03257 -0.3642,1.1728 -0.0483,0.14022 -0.22757,0.75976 -0.39823,1.37675 -0.17066,0.61699 -0.354,1.25948 -0.40743,1.42775 -0.11612,0.36571 -0.3752,1.33892 -0.93112,3.49767 -0.53191,2.0655 -0.85889,3.64565 -1.30118,6.2881 -0.0526,0.31466 -0.12363,0.41925 -0.32248,0.47527 -0.42509,0.11975 -28.74239,0.0973 -28.81663,-0.0228 z m 24.67805,-5.47055 c 0.0311,-0.0982 0.10513,-0.40794 0.16482,-0.68838 0.0596,-0.28045 0.14756,-0.67053 0.1954,-0.86684 0.0478,-0.19633 0.13291,-0.56346 0.18907,-0.81586 0.11608,-0.52188 0.41843,-1.66505 0.79568,-3.00847 0.14176,-0.5048 0.32821,-1.17024 0.41435,-1.47873 0.20379,-0.72995 0.662,-2.26815 1.16958,-3.9263 0.49305,-1.61066 3.22038,-9.91273 3.35024,-10.19818 0.051,-0.1122 0.16168,-0.41048 0.24592,-0.66288 0.0843,-0.2524 0.38068,-1.1014 0.65878,-1.88667 0.27811,-0.78525 0.65052,-1.84077 0.82758,-2.34558 0.17706,-0.50481 0.36016,-1.00962 0.40687,-1.1218 0.0467,-0.1122 0.14008,-0.36458 0.2075,-0.5609 0.0675,-0.19632 0.16128,-0.44872 0.20862,-0.5609 0.0473,-0.1122 0.25305,-0.66288 0.45717,-1.22379 0.51512,-1.41552 1.35454,-3.58544 1.58746,-4.10364 0.10687,-0.23777 0.1943,-0.49248 0.1943,-0.56601 0,-0.0735 0.0373,-0.17729 0.0828,-0.23057 0.0455,-0.0533 0.25843,-0.55579 0.47307,-1.1167 0.21464,-0.5609 0.42979,-1.06341 0.47809,-1.1167 0.0483,-0.0533 0.0879,-0.15518 0.0879,-0.22643 0,-0.0713 0.10989,-0.37185 0.24404,-0.66799 0.13422,-0.29613 0.59838,-1.36447 1.03146,-2.37409 0.43309,-1.00963 0.89691,-2.07797 1.03073,-2.3741 0.13383,-0.29613 0.24332,-0.55546 0.24332,-0.57627 0,-0.0336 0.30154,-0.6965 1.07008,-2.35268 0.13013,-0.28046 0.3499,-0.76232 0.48837,-1.07082 0.25137,-0.56003 0.63784,-1.39951 1.22067,-2.65153 0.63455,-1.36313 4.69121,-9.50348 5.64119,-11.31998 0.54266,-1.03766 1.57157,-2.94217 2.28644,-4.23224 1.71769,-3.09979 1.78436,-3.21694 2.95933,-5.20106 2.30178,-3.88691 3.85244,-6.34302 6.66401,-10.55513 1.40988,-2.11219 1.88932,-2.81043 2.69591,-3.92629 0.16218,-0.22436 0.52027,-0.72204 0.79576,-1.10593 1.87658,-2.61494 6.5895,-8.70668 7.75403,-10.02256 0.18552,-0.20963 0.65393,-0.75318 1.58064,-1.83425 2.7366,-3.19236 6.14502,-6.64626 8.88788,-9.00645 0.63685,-0.54802 1.01751,-0.95273 1.05447,-1.12113 0.0319,-0.14493 0.095,-0.40121 0.14046,-0.56947 0.0454,-0.16827 0.13617,-0.60424 0.20162,-0.96882 0.11186,-0.62274 0.16748,-0.89212 0.40577,-1.96316 0.0531,-0.23838 0.12434,-0.5711 0.15845,-0.73937 0.15564,-0.767792 0.58075,-2.792929 0.8563,-4.079272 0.65328,-3.04973 1.02815,-4.878861 1.02936,-5.022603 6.2e-4,-0.101761 -7.96856,-0.127475 -39.51,-0.127475 -37.54357,0 -39.51344,0.0089 -39.55842,0.178468 -0.0261,0.09816 -0.10108,0.476766 -0.16666,0.841351 -0.0656,0.364586 -0.16219,0.846447 -0.2146,1.070807 -0.0833,0.356951 -0.58626,2.818924 -0.81239,3.977291 -0.14316,0.733264 -0.31972,1.623664 -0.40446,2.039639 -0.0457,0.22436 -0.13749,0.683274 -0.20396,1.019814 -0.0664,0.33654 -0.15826,0.79546 -0.20396,1.01982 -0.0457,0.22436 -0.13178,0.66033 -0.19127,0.96883 -0.0595,0.30849 -0.27139,1.34106 -0.47088,2.29459 -0.19949,0.95352 -0.40484,1.96315 -0.45631,2.2436 -0.0515,0.28044 -0.13938,0.74258 -0.19533,1.02694 -0.056,0.28437 -0.10988,0.55972 -0.11991,0.61189 -0.0104,0.0522 -0.0127,0.17555 -0.006,0.27418 0.0116,0.17066 1.38891,0.17932 28.49049,0.1792 22.64502,-1e-4 28.47163,0.0259 28.44529,0.12662 -0.0182,0.0697 -0.11395,0.21853 -0.21268,0.33071 -0.25988,0.29521 -2.62179,3.05961 -3.22157,3.77055 -0.28045,0.33243 -0.81005,0.95091 -1.17688,1.37441 -0.67784,0.78254 -1.63606,1.95282 -3.33823,4.07697 -0.52016,0.64912 -1.09381,1.35716 -1.27478,1.57342 -0.18097,0.21626 -0.44375,0.54633 -0.58397,0.73348 -0.14024,0.18714 -0.91787,1.20338 -1.7281,2.25831 -2.47167,3.2182 -2.70081,3.52147 -3.29841,4.36562 -0.31766,0.44873 -0.86026,1.20594 -1.20577,1.68271 -2.83736,3.91521 -6.45581,9.38144 -9.11361,13.76754 -0.49283,0.81331 -1.02367,1.68525 -1.17964,1.93765 -0.15596,0.25241 -0.52215,0.87195 -0.81373,1.37677 -0.5966,1.03289 -0.57914,1.00203 -1.98916,3.51837 -0.23573,0.42067 -0.51876,0.92549 -0.62896,1.1218 -0.11023,0.19631 -0.39766,0.72406 -0.63881,1.17278 -0.24114,0.44873 -0.51807,0.95353 -0.6154,1.1218 -0.84789,1.466 -4.77634,9.31797 -6.07174,12.13584 -0.20628,0.44872 -0.53626,1.16003 -0.7333,1.58072 -0.3961,0.84567 -0.70554,1.52349 -1.04753,2.29459 -0.12438,0.28044 -0.2875,0.64758 -0.36249,0.81585 -0.8046,1.80561 -1.06591,2.40518 -1.06591,2.44565 0,0.0262 -0.13769,0.34839 -0.30595,0.71579 -0.16827,0.36739 -0.30595,0.68842 -0.30595,0.7134 0,0.0249 -0.10965,0.28771 -0.24368,0.58384 -0.13403,0.29614 -0.33592,0.76788 -0.44863,1.04834 -0.6823,1.69766 -1.09132,2.70126 -1.24684,3.05946 -0.0974,0.22436 -0.34002,0.84389 -0.53912,1.37675 -0.19911,0.53285 -0.45041,1.17533 -0.55845,1.42774 -0.10803,0.25241 -0.29802,0.75721 -0.42221,1.12181 -0.12419,0.36458 -0.26431,0.75466 -0.31137,0.86684 -0.13333,0.31781 -0.67069,1.75546 -0.972,2.60054 -0.14998,0.42067 -0.34243,0.94843 -0.42765,1.17279 -0.0852,0.22436 -0.23805,0.66032 -0.33963,0.96882 -0.10154,0.3085 -0.53543,1.57052 -0.96411,2.8045 -1.06654,3.07013 -2.11394,6.28626 -2.9061,8.92342 -0.1769,0.58894 -0.35818,1.18553 -0.40282,1.32575 -0.23644,0.74267 -0.31899,1.01821 -0.4583,1.52974 -0.084,0.30849 -0.29371,1.0657 -0.46597,1.68269 -0.38112,1.36507 -0.80532,2.93349 -0.92398,3.41639 -0.24817,1.00988 -0.31977,1.30905 -0.40267,1.6827 -0.0498,0.22436 -0.14356,0.63739 -0.20841,0.91784 -0.22255,0.96251 -0.28335,1.32412 -0.23561,1.40135 0.0263,0.0426 4.14933,0.0774 9.16229,0.0774 8.59099,0 9.11772,-0.0104 9.17089,-0.17847 z"
       id="path3855" />
    <path
       style="fill:#ffffff;stroke-width:0.674591"
       d="m 407.45306,800.81852 c 0,-1.58037 7.76947,-30.86288 11.11816,-41.90347 8.89843,-29.33799 22.84457,-68.51674 33.2578,-93.43087 39.05065,-93.43039 83.93204,-166.24036 149.49098,-242.51552 4.30513,-5.00884 7.82937,-9.29494 7.83166,-9.52466 0.002,-0.22972 -1.13422,-0.60584 -2.52556,-0.83582 -1.39135,-0.22997 -49.43067,-0.42612 -106.75405,-0.43589 -57.32339,-0.01 -104.56731,-0.24078 -104.9865,-0.51337 -0.54166,-0.35223 1.13106,-9.86342 5.78185,-32.87599 l 6.544,-32.38037 148.86818,-0.17015 c 132.25299,-0.15116 148.86818,-0.0567 148.86818,0.84635 0,0.55907 -2.26209,11.83113 -5.02685,25.04903 l -5.02685,24.03253 -13.78789,13.39156 c -19.72445,19.15749 -31.80985,33.20317 -53.3412,61.99324 -16.18405,21.64008 -34.81937,50.12746 -48.75879,74.53642 -17.06601,29.88388 -38.81329,73.88436 -53.1233,107.48244 -17.16866,40.30983 -38.81622,103.24063 -47.35315,137.65854 l -2.52794,10.19177 h -34.27437 c -19.37676,0 -34.27436,-0.25895 -34.27436,-0.59577 z"
       id="path4152"
       transform="scale(0.26458333)" />
    <path
       style="fill:#ffffff;stroke-width:0.674591"
       d="m 407.45306,800.82113 c 0,-0.32624 1.64419,-7.08059 3.65377,-15.00966 10.2078,-40.27641 29.45884,-95.29374 48.47679,-138.54125 36.82773,-83.74764 79.6317,-151.69736 140.02073,-222.27779 5.23794,-6.12192 9.52982,-11.31871 9.5375,-11.54843 0.008,-0.22972 -1.12441,-0.60584 -2.51575,-0.83582 -1.39135,-0.22997 -49.43067,-0.42612 -106.75405,-0.43589 -57.32339,-0.01 -104.56755,-0.24078 -104.98703,-0.51337 -0.54236,-0.35244 1.1261,-9.84976 5.77555,-32.87599 l 6.53824,-32.38037 148.87447,-0.17015 c 141.47767,-0.1617 148.87366,-0.11142 148.85801,1.01189 -0.009,0.65012 -2.25759,11.87562 -4.99673,24.94557 l -4.98028,23.76353 -16.15606,16.03735 c -20.52418,20.37336 -31.18941,32.84172 -52.09087,60.89765 -10.22375,13.7233 -30.51926,44.20719 -39.99721,60.07588 -21.13266,35.38193 -46.77323,86.77329 -64.14587,128.56755 -16.19921,38.97127 -39.45743,108.18155 -45.25081,134.65438 l -1.14413,5.22808 h -34.35814 c -19.31148,0 -34.35813,-0.25977 -34.35813,-0.59316 z"
       id="path4228"
       transform="scale(0.26458333)" />
    <path
       style="fill:#ffffff;stroke-width:0.674591"
       d="m 407.45306,800.85842 c 0,-0.30573 1.19302,-5.39046 2.65115,-11.2994 10.23939,-41.49409 30.59572,-99.7085 50.81685,-145.32446 36.32423,-81.94228 77.44335,-147.10409 137.41527,-217.76315 5.76521,-6.79258 10.56952,-12.59464 10.67626,-12.89349 0.10674,-0.29884 -0.95574,-0.73337 -2.36107,-0.96561 -1.40533,-0.23225 -49.45609,-0.43025 -106.77947,-0.44002 -57.32339,-0.01 -104.57711,-0.2422 -105.00828,-0.51653 -0.56978,-0.36252 1.00196,-9.34411 5.75315,-32.87599 l 6.53709,-32.37721 148.9737,-0.17015 148.97369,-0.17016 -0.43254,2.86852 c -0.2379,1.57769 -2.53987,12.86457 -5.11548,25.08197 l -4.68291,22.21345 -12.33208,11.92415 c -19.45173,18.80831 -32.37241,33.6774 -52.44469,60.35322 -15.8958,21.12533 -32.16242,45.56133 -46.70263,70.15748 -19.35764,32.74527 -45.55653,85.82457 -61.93534,125.48179 -14.48337,35.06787 -37.39363,103.27144 -43.56159,129.68231 l -1.77236,7.58915 h -34.33436 c -18.8839,0 -34.33436,-0.25014 -34.33436,-0.55587 z"
       id="path4267"
       transform="scale(0.26458333)" />
    <text
       xml:space="preserve"
       transform="scale(0.26458333)"
       id="text7516"
       style="font-style:normal;font-weight:normal;font-size:40px;line-height:1.25;font-family:sans-serif;white-space:pre;shape-inside:url(#rect7518);fill:#000000;fill-opacity:1;stroke:none" />
    <text
       xml:space="preserve"
       id="text852"
       style="font-size:192px;white-space:pre;shape-inside:url(#rect854);fill:#f6f6f6;fill-opacity:1;stroke-width:8"
       transform="matrix(0.44228767,0,0,0.44228767,153.2386,410.86648)"><tspan
         x="-18.974609"
         y="-444.18359"
         id="tspan15159">PRACTIKA</tspan></text>
  </g>
</svg>
